<?xml version="1.0" encoding="iso-8859-1"?>
<!-- Generator: Adobe Illustrator 19.0.0, SVG Export Plug-In . SVG Version: 6.00 Build 0)  -->
<svg version="1.1" id="Capa_1" xmlns="http://www.w3.org/2000/svg" xmlns:xlink="http://www.w3.org/1999/xlink" x="0px" y="0px"
	 viewBox="0 0 512 512" style="enable-background:new 0 0 512 512;" xml:space="preserve">
<rect x="46" y="234" style="fill:#78777F;" width="30" height="87"/>
<path style="fill:#A3D9F6;" d="M381,176H131v-51C131,56.075,187.075,0,256,0s125,56.075,125,125V176z"/>
<path style="fill:#84CAFF;" d="M381,125C381,56.075,324.925,0,256,0v176h125V125z"/>
<path style="fill:#AEADB3;" d="M201,79c0,30.327,24.673,55,55,55s55-24.673,55-55V12.771C294.393,4.599,275.725,0,256,0
	s-38.393,4.599-55,12.771V79z"/>
<path style="fill:#78777F;" d="M195,512h-42c-13.785,0-25-11.215-25-25v-61h92v61C220,500.785,208.785,512,195,512z"/>
<path style="fill:#57555C;" d="M359,512h-42c-13.785,0-25-11.215-25-25v-61h92v61C384,500.785,372.785,512,359,512z"/>
<path style="fill:#D9D9DB;" d="M406,456H106V146h300V456z"/>
<rect x="256" y="146" style="fill:#C8C6CD;" width="150" height="310"/>
<rect x="121" y="356" style="fill:#AEADB3;" width="100" height="30"/>
<rect x="291" y="356" style="fill:#78777F;" width="100" height="30"/>
<circle style="fill:#FEC000;" cx="306" cy="271" r="15"/>
<g>
	<circle style="fill:#E70020;" cx="306" cy="321" r="15"/>
	<circle style="fill:#E70020;" cx="306" cy="221" r="15"/>
</g>
<rect x="436" y="234" style="fill:#57555C;" width="30" height="87"/>
<path style="fill:#E70020;" d="M491,368h-30v-22c0-5.514-4.486-10-10-10s-10,4.486-10,10v22h-30v-22c0-22.056,17.944-40,40-40
	s40,17.944,40,40V368z"/>
<path style="fill:#D9D9DB;" d="M61,249c-24.813,0-45-20.187-45-45s20.187-45,45-45s45,20.187,45,45S85.813,249,61,249z"/>
<path style="fill:#FF4F19;" d="M101,368H71v-22c0-5.514-4.486-10-10-10s-10,4.486-10,10v22H21v-22c0-22.056,17.944-40,40-40
	s40,17.944,40,40V368z"/>
<path style="fill:#78777F;" d="M256,0v134c30.327,0,55-24.673,55-55V12.771C294.393,4.599,275.725,0,256,0z"/>
<circle style="fill:#FFDB2D;" cx="256" cy="79" r="15"/>
<path style="fill:#C8C6CD;" d="M451,249c-24.813,0-45-20.187-45-45s20.187-45,45-45s45,20.187,45,45S475.813,249,451,249z"/>
<path style="fill:#FEC000;" d="M256,64v30c8.284,0,15-6.716,15-15S264.284,64,256,64z"/>
<g>
</g>
<g>
</g>
<g>
</g>
<g>
</g>
<g>
</g>
<g>
</g>
<g>
</g>
<g>
</g>
<g>
</g>
<g>
</g>
<g>
</g>
<g>
</g>
<g>
</g>
<g>
</g>
<g>
</g>
</svg>
