<?xml version="1.0" encoding="utf-8"?>
<!-- Generator: Adobe Illustrator 16.0.0, SVG Export Plug-In . SVG Version: 6.00 Build 0)  -->
<!DOCTYPE svg PUBLIC "-//W3C//DTD SVG 1.1//EN" "http://www.w3.org/Graphics/SVG/1.1/DTD/svg11.dtd">
<svg version="1.1" xmlns="http://www.w3.org/2000/svg" xmlns:xlink="http://www.w3.org/1999/xlink" x="0px" y="0px" width="2500px"
	 height="2500px" viewBox="0 0 2500 2500" enable-background="new 0 0 2500 2500" xml:space="preserve">
<g id="Layer_2">
</g>
<g id="Layer_1">
	<path fill="#FFFFFF" d="M1620.742,154.668c-37.988-116.943-163.594-180.938-280.518-142.93
		c-116.943,37.988-180.938,163.594-142.93,280.518l575.654,1771.143c39.531,109.248,157.539,170.635,270.82,138.037
		c118.164-34.014,190.186-159.512,152.48-275.557L1620.742,154.668"/>
	<path fill="#FFFFFF" d="M728.77,444.492c-38.008-116.934-163.604-180.928-280.527-142.939
		C331.289,339.551,267.285,465.146,305.303,582.09l575.664,1771.152c39.521,109.238,157.539,170.635,270.82,138.008
		c118.154-33.994,190.176-159.492,152.471-275.557L728.77,444.492"/>
	<path fill="#FFFFFF" d="M2345.332,1621.533c116.943-37.988,180.918-163.574,142.93-280.527
		c-37.988-116.924-163.594-180.928-280.518-142.93L436.602,1773.75c-109.248,39.512-170.635,157.52-138.037,270.801
		c34.014,118.154,159.512,190.186,275.557,152.48l1771.211-575.488"/>
	<path fill="#FFFFFF" d="M805.742,2121.777l423.311-137.539l-137.559-423.359l-423.34,137.598l137.588,423.311"/>
	<path fill="#FFFFFF" d="M1697.725,1831.943c160.039-51.982,308.789-100.322,423.32-137.539l-137.578-423.438l-423.34,137.598
		L1697.725,1831.943"/>
	<path fill="#FFFFFF" d="M2055.508,729.551c116.934-37.988,180.928-163.584,142.939-280.537
		c-37.988-116.924-163.594-180.918-280.537-142.93L146.758,881.768C37.52,921.26-23.877,1039.277,8.75,1152.559
		c33.994,118.145,159.492,190.176,275.557,152.471l1771.201-575.488"/>
	<path fill="#FFFFFF" d="M515.84,1229.814c115.283-37.461,263.916-85.762,423.379-137.559
		C887.236,932.197,838.896,783.447,801.68,668.896L378.242,806.514L515.84,1229.814"/>
	<path fill="#FFFFFF" d="M1407.813,940l423.398-137.578c-45.856-141.147-91.787-282.271-137.588-423.438l-423.408,137.617
		L1407.813,940"/>
</g>
</svg>
